<svg width="59" height="69" viewBox="0 0 59 69" fill="none" xmlns="http://www.w3.org/2000/svg">
<path d="M39.0815 42.2222C38.6539 42.0828 35.9513 40.8679 37.6401 35.7484H37.6159C42.018 31.2269 45.3821 23.9511 45.3821 16.7881C45.3821 5.77391 38.0381 0 29.5027 0C20.9619 0 13.6582 5.77123 13.6582 16.7881C13.6582 23.9806 17.0035 31.2859 21.4325 35.7966C23.159 40.3128 20.0718 41.9889 19.4264 42.2222C10.4877 45.4484 0 51.3243 0 57.125V59.2999C0 67.2032 15.3658 69 29.5861 69C43.8278 69 59 67.2032 59 59.2999V57.125C59 51.1499 48.4612 45.3197 39.0815 42.2222ZM24.2481 65.578C24.2481 58.7421 28.6126 49.514 28.6126 49.514L25.5927 47.1514C25.5927 44.8933 29.5 42.5306 29.5 42.5306C29.5 42.5306 33.3966 44.9309 33.3966 47.1514L30.3874 49.514C30.3874 49.514 34.7519 58.7073 34.7519 65.6531C34.7519 66.7419 24.2481 66.4898 24.2481 65.578Z" fill="white"/>
</svg>
