<svg width="30" height="37" viewBox="0 0 30 37" fill="none" xmlns="http://www.w3.org/2000/svg">
<path d="M1.875 0H28.125C28.6223 0 29.0992 0.19491 29.4508 0.541852C29.8025 0.888795 30 1.35935 30 1.85V35.15C30 35.6407 29.8025 36.1112 29.4508 36.4581C29.0992 36.8051 28.6223 37 28.125 37H1.875C1.37772 37 0.900806 36.8051 0.549175 36.4581C0.197544 36.1112 0 35.6407 0 35.15V1.85C0 1.35935 0.197544 0.888795 0.549175 0.541852C0.900806 0.19491 1.37772 0 1.875 0ZM9.375 16.65V11.1L0 18.5L9.375 25.9V20.35H20.625V16.65H9.375Z" fill="#F604FC" fill-opacity="0.8"/>
</svg>
