<svg width="113" height="39" viewBox="0 0 113 39" fill="none" xmlns="http://www.w3.org/2000/svg">
<path d="M6.425 24.625C7.54167 24.625 8.38333 24.375 8.95 23.875C9.53333 23.3583 9.825 22.7 9.825 21.9C9.825 21.2 9.6 20.6333 9.15 20.2C8.71667 19.7667 8.025 19.4083 7.075 19.125L4.9 18.475C3.83333 18.1583 2.99167 17.6917 2.375 17.075C1.775 16.4583 1.475 15.625 1.475 14.575C1.475 13.9417 1.59167 13.375 1.825 12.875C2.075 12.3583 2.425 11.925 2.875 11.575C3.325 11.225 3.85833 10.9583 4.475 10.775C5.10833 10.575 5.81667 10.475 6.6 10.475C7.26667 10.475 7.88333 10.5333 8.45 10.65C9.03333 10.75 9.53333 10.9 9.95 11.1C10.3833 11.2833 10.7167 11.4917 10.95 11.725C11.1833 11.9583 11.3 12.2 11.3 12.45C11.3 12.6833 11.2417 12.8833 11.125 13.05C11.0083 13.2167 10.8583 13.35 10.675 13.45C10.2417 13.1167 9.675 12.825 8.975 12.575C8.29167 12.325 7.525 12.2 6.675 12.2C5.69167 12.2 4.91667 12.4083 4.35 12.825C3.8 13.2417 3.525 13.825 3.525 14.575C3.525 15.1583 3.725 15.6333 4.125 16C4.525 16.3667 5.19167 16.6833 6.125 16.95L7.65 17.4C8.96667 17.7833 10 18.325 10.75 19.025C11.5167 19.7083 11.9 20.6667 11.9 21.9C11.9 23.2167 11.425 24.2833 10.475 25.1C9.525 25.9167 8.175 26.325 6.425 26.325C5.65833 26.325 4.95833 26.2583 4.325 26.125C3.70833 25.9917 3.175 25.8167 2.725 25.6C2.29167 25.3833 1.95 25.15 1.7 24.9C1.46667 24.6333 1.35 24.375 1.35 24.125C1.35 23.8417 1.43333 23.6083 1.6 23.425C1.78333 23.225 1.99167 23.0833 2.225 23C2.40833 23.1833 2.63333 23.375 2.9 23.575C3.16667 23.7583 3.475 23.9333 3.825 24.1C4.175 24.25 4.56667 24.375 5 24.475C5.43333 24.575 5.90833 24.625 6.425 24.625ZM17.0859 25.95C17.0026 25.9833 16.8776 26.0167 16.7109 26.05C16.5443 26.1 16.3609 26.125 16.1609 26.125C15.4443 26.125 15.0859 25.825 15.0859 25.225V14.5C15.1693 14.4667 15.2943 14.4333 15.4609 14.4C15.6443 14.35 15.8359 14.325 16.0359 14.325C16.7359 14.325 17.0859 14.6333 17.0859 15.25V25.95ZM14.7859 10.8C14.7859 10.45 14.9026 10.1583 15.1359 9.925C15.3859 9.675 15.7026 9.55 16.0859 9.55C16.4693 9.55 16.7776 9.675 17.0109 9.925C17.2443 10.1583 17.3609 10.45 17.3609 10.8C17.3609 11.15 17.2443 11.45 17.0109 11.7C16.7776 11.9333 16.4693 12.05 16.0859 12.05C15.7026 12.05 15.3859 11.9333 15.1359 11.7C14.9026 11.45 14.7859 11.15 14.7859 10.8ZM28.7162 24.8C28.4329 25.0333 28.0412 25.2333 27.5412 25.4C27.0579 25.5667 26.4745 25.65 25.7912 25.65C25.0579 25.65 24.3662 25.55 23.7162 25.35C23.0662 25.1333 22.4912 24.8 21.9912 24.35C21.5079 23.8833 21.1162 23.2833 20.8162 22.55C20.5329 21.8167 20.3912 20.925 20.3912 19.875C20.3912 18.925 20.5329 18.0917 20.8162 17.375C21.0995 16.6583 21.4912 16.0583 21.9912 15.575C22.5079 15.0917 23.1162 14.7333 23.8162 14.5C24.5162 14.25 25.2912 14.125 26.1412 14.125C26.9079 14.125 27.6079 14.225 28.2412 14.425C28.8912 14.6083 29.4329 14.8417 29.8662 15.125C30.1162 15.2917 30.3162 15.4833 30.4662 15.7C30.6329 15.9 30.7162 16.15 30.7162 16.45V26.5C30.7162 27.3333 30.5745 28.0333 30.2912 28.6C30.0245 29.1833 29.6412 29.65 29.1412 30C28.6579 30.3667 28.0829 30.6333 27.4162 30.8C26.7495 30.9667 26.0329 31.05 25.2662 31.05C24.4162 31.05 23.6912 30.9583 23.0912 30.775C22.5079 30.6083 22.1079 30.4583 21.8912 30.325C21.3912 30.0417 21.1412 29.6833 21.1412 29.25C21.1412 29.0167 21.1912 28.8167 21.2912 28.65C21.4079 28.5 21.5495 28.3833 21.7162 28.3C22.0662 28.5667 22.5579 28.8083 23.1912 29.025C23.8245 29.2583 24.5162 29.375 25.2662 29.375C26.3829 29.375 27.2329 29.1333 27.8162 28.65C28.4162 28.1833 28.7162 27.425 28.7162 26.375V24.8ZM26.0162 24C26.6829 24 27.2245 23.9 27.6412 23.7C28.0745 23.4833 28.4329 23.2417 28.7162 22.975V16.475C28.4329 16.2917 28.0745 16.1333 27.6412 16C27.2245 15.85 26.7245 15.775 26.1412 15.775C25.0079 15.775 24.0995 16.1167 23.4162 16.8C22.7495 17.4833 22.4162 18.5 22.4162 19.85C22.4162 20.6 22.5079 21.2417 22.6912 21.775C22.8745 22.2917 23.1245 22.7167 23.4412 23.05C23.7745 23.3833 24.1579 23.625 24.5912 23.775C25.0412 23.925 25.5162 24 26.0162 24ZM42.4189 18.475C42.4189 17.5417 42.1523 16.8583 41.6189 16.425C41.1023 15.9917 40.4023 15.775 39.5189 15.775C38.8523 15.775 38.2606 15.8583 37.7439 16.025C37.2273 16.1917 36.7856 16.3833 36.4189 16.6V25.95C36.3356 25.9833 36.2106 26.0167 36.0439 26.05C35.8773 26.1 35.6939 26.125 35.4939 26.125C34.7773 26.125 34.4189 25.825 34.4189 25.225V16.7C34.4189 16.35 34.4856 16.0667 34.6189 15.85C34.7689 15.6167 35.0189 15.3917 35.3689 15.175C35.8023 14.9083 36.3773 14.6667 37.0939 14.45C37.8106 14.2333 38.6189 14.125 39.5189 14.125C41.0356 14.125 42.2273 14.4667 43.0939 15.15C43.9773 15.8333 44.4189 16.9083 44.4189 18.375V25.95C44.3356 25.9833 44.2023 26.0167 44.0189 26.05C43.8523 26.1 43.6773 26.125 43.4939 26.125C42.7773 26.125 42.4189 25.825 42.4189 25.225V18.475ZM65.3189 20.75C65.3189 21.6 65.1856 22.3667 64.9189 23.05C64.6689 23.7333 64.2856 24.3167 63.7689 24.8C63.2689 25.2833 62.6523 25.6583 61.9189 25.925C61.1856 26.1917 60.3439 26.325 59.3939 26.325C58.4439 26.325 57.6023 26.1917 56.8689 25.925C56.1356 25.6583 55.5189 25.2833 55.0189 24.8C54.5189 24.3167 54.1356 23.7333 53.8689 23.05C53.6189 22.3667 53.4939 21.6 53.4939 20.75V10.85C53.5773 10.8167 53.7023 10.7833 53.8689 10.75C54.0523 10.7 54.2439 10.675 54.4439 10.675C55.1606 10.675 55.5189 10.9833 55.5189 11.6V20.575C55.5189 21.2417 55.6189 21.825 55.8189 22.325C56.0189 22.825 56.2856 23.25 56.6189 23.6C56.9689 23.9333 57.3773 24.1833 57.8439 24.35C58.3273 24.5167 58.8439 24.6 59.3939 24.6C59.9439 24.6 60.4523 24.5167 60.9189 24.35C61.4023 24.1833 61.8106 23.9333 62.1439 23.6C62.4939 23.25 62.7689 22.825 62.9689 22.325C63.1689 21.825 63.2689 21.2417 63.2689 20.575V10.85C63.3523 10.8167 63.4773 10.7833 63.6439 10.75C63.8273 10.7 64.0189 10.675 64.2189 10.675C64.9523 10.675 65.3189 10.9833 65.3189 11.6V20.75ZM74.2072 26.325C73.6239 26.325 73.0739 26.2583 72.5572 26.125C72.0406 25.9917 71.6156 25.8333 71.2822 25.65V30.5C71.1989 30.5333 71.0739 30.5667 70.9072 30.6C70.7406 30.65 70.5572 30.675 70.3572 30.675C69.6406 30.675 69.2822 30.3667 69.2822 29.75V16.55C69.2822 16.2167 69.3406 15.95 69.4572 15.75C69.5739 15.55 69.8156 15.3417 70.1822 15.125C70.6322 14.875 71.1656 14.65 71.7822 14.45C72.4156 14.2333 73.1322 14.125 73.9322 14.125C74.7489 14.125 75.5156 14.2417 76.2322 14.475C76.9656 14.7083 77.5906 15.075 78.1072 15.575C78.6406 16.0583 79.0572 16.6833 79.3572 17.45C79.6739 18.2167 79.8322 19.1333 79.8322 20.2C79.8322 21.2333 79.6906 22.1333 79.4072 22.9C79.1406 23.6667 78.7572 24.3083 78.2572 24.825C77.7572 25.325 77.1572 25.7 76.4572 25.95C75.7739 26.2 75.0239 26.325 74.2072 26.325ZM73.9322 24.675C75.0989 24.675 76.0322 24.325 76.7322 23.625C77.4489 22.9083 77.8072 21.7667 77.8072 20.2C77.8072 19.3833 77.6989 18.6917 77.4822 18.125C77.2822 17.5583 76.9989 17.1 76.6322 16.75C76.2822 16.4 75.8739 16.15 75.4072 16C74.9406 15.85 74.4489 15.775 73.9322 15.775C73.3322 15.775 72.8239 15.85 72.4072 16C71.9906 16.15 71.6156 16.3167 71.2822 16.5V23.875C71.5989 24.1083 71.9739 24.3 72.4072 24.45C72.8406 24.6 73.3489 24.675 73.9322 24.675Z" fill="white"/>
<path d="M86 19H106M106 19L98 11V27L106 19ZM104 7H112V31H104" stroke="white" stroke-width="2" stroke-linecap="round" stroke-linejoin="round"/>
</svg>
