<svg width="79" height="79" viewBox="0 0 79 79" fill="none" xmlns="http://www.w3.org/2000/svg">
<path d="M69.8775 64.6949C73.9323 59.8202 76.7524 54.0415 78.0994 47.8476C79.4463 41.6536 79.2804 35.2266 77.6156 29.1103C75.9509 22.994 72.8363 17.3682 68.5353 12.709C64.2344 8.04976 58.8736 4.49409 52.9065 2.34278C46.9393 0.191474 40.5414 -0.492185 34.2539 0.34964C27.9664 1.19146 21.9744 3.53401 16.7846 7.1791C11.5948 10.8242 7.36001 15.6646 4.43844 21.2909C1.51686 26.9171 -0.00554127 33.1637 1.51553e-05 39.5022C0.00214735 48.7165 3.2519 57.6358 9.17904 64.6949L9.12257 64.7428C9.32021 64.9798 9.54608 65.1829 9.74937 65.4171C10.0035 65.7076 10.2774 65.9813 10.5399 66.2634C11.3305 67.121 12.1437 67.9448 12.9963 68.7178C13.2561 68.9548 13.5243 69.1748 13.7869 69.4005C14.6904 70.1791 15.6193 70.9183 16.5821 71.6066C16.7063 71.6912 16.8193 71.8013 16.9435 71.8887V71.8549C23.5563 76.5046 31.445 79 39.5311 79C47.6171 79 55.5058 76.5046 62.1186 71.8549V71.8887C62.2429 71.8013 62.353 71.6912 62.48 71.6066C63.44 70.9154 64.3717 70.1791 65.2752 69.4005C65.5378 69.1748 65.8061 68.9519 66.0658 68.7178C66.9185 67.942 67.7316 67.121 68.5222 66.2634C68.7848 65.9813 69.0558 65.7076 69.3128 65.4171C69.5132 65.1829 69.7419 64.9798 69.9396 64.74L69.8775 64.6949ZM39.5282 16.9331C42.0412 16.9331 44.4976 17.6777 46.587 19.0726C48.6765 20.4676 50.305 22.4503 51.2666 24.77C52.2282 27.0897 52.4799 29.6423 51.9896 32.1049C51.4994 34.5675 50.2893 36.8296 48.5124 38.605C46.7355 40.3804 44.4716 41.5895 42.007 42.0794C39.5423 42.5692 36.9877 42.3178 34.6661 41.3569C32.3444 40.3961 30.3601 38.7689 28.964 36.6812C27.5679 34.5935 26.8227 32.1391 26.8227 29.6282C26.8227 26.2613 28.1614 23.0322 30.5441 20.6514C32.9268 18.2707 36.1585 16.9331 39.5282 16.9331ZM16.9604 64.6949C17.0094 60.9906 18.516 57.4546 21.1543 54.8518C23.7925 52.2489 27.3503 50.7886 31.0579 50.7867H47.9986C51.7062 50.7886 55.264 52.2489 57.9022 54.8518C60.5405 57.4546 62.0471 60.9906 62.096 64.6949C55.9038 70.2703 47.8638 73.3559 39.5282 73.3559C31.1927 73.3559 23.1527 70.2703 16.9604 64.6949Z" fill="#242C3C"/>
</svg>
