<svg width="20" height="20" viewBox="0 0 20 20" fill="none" xmlns="http://www.w3.org/2000/svg">
<path d="M10.0001 3.25869e-08C10.8855 -0.000115323 11.7389 0.306035 12.3928 0.85834C13.0467 1.41064 13.4539 2.1692 13.5344 2.98507H19.0325C19.2777 2.98514 19.5138 3.07134 19.6929 3.22624C19.8721 3.38114 19.981 3.59319 19.9977 3.81956C20.0145 4.04592 19.9377 4.26972 19.783 4.44573C19.6282 4.62174 19.4071 4.73683 19.1642 4.76776L19.0325 4.77612H18.2803L16.6454 17.8866C16.5726 18.4685 16.2711 19.0054 15.7984 19.3951C15.3257 19.7848 14.7146 20.0001 14.0815 20H5.9188C5.28569 20.0001 4.67464 19.7848 4.20189 19.3951C3.72915 19.0054 3.4277 18.4685 3.35489 17.8866L1.71874 4.77612H0.967756C0.733898 4.77611 0.507953 4.69774 0.331707 4.5555C0.155461 4.41326 0.0408371 4.21678 0.00903235 4.00239L0 3.8806C9.86195e-06 3.66419 0.0847014 3.45511 0.238413 3.29202C0.392124 3.12893 0.604456 3.02286 0.836141 2.99343L0.967756 2.98507H6.4659C6.54639 2.1692 6.95356 1.41064 7.60747 0.85834C8.26139 0.306035 9.1148 -0.000115323 10.0001 3.25869e-08ZM8.06464 7.46269C7.7485 7.46269 7.48398 7.64776 7.42979 7.89134L7.41946 7.98567V15.2991L7.42979 15.3922C7.48398 15.6358 7.7485 15.8209 8.06464 15.8209C8.38077 15.8209 8.64529 15.6358 8.69948 15.3922L8.70981 15.2979V7.98687L8.69948 7.89134C8.64529 7.64896 8.38077 7.46269 8.06464 7.46269ZM11.9357 7.46269C11.6195 7.46269 11.355 7.64776 11.3008 7.89134L11.2905 7.98567V15.2991L11.3008 15.3922C11.355 15.6358 11.6195 15.8209 11.9357 15.8209C12.2518 15.8209 12.5163 15.6358 12.5705 15.3922L12.5808 15.2979V7.98687L12.5705 7.89134C12.5163 7.64896 12.2518 7.46269 11.9357 7.46269ZM10.0001 1.79104C9.21949 1.79104 8.56787 2.30448 8.41948 2.98507H11.5808C11.4311 2.30448 10.7808 1.79104 10.0001 1.79104Z" fill="white"/>
</svg>
